<?xml version="1.0" encoding="UTF-8" standalone="no"?>
<svg width="120px" height="121px" viewBox="0 0 120 121" version="1.1" xmlns="http://www.w3.org/2000/svg" xmlns:xlink="http://www.w3.org/1999/xlink">
    <!-- Generator: Sketch 40.3 (33839) - http://www.bohemiancoding.com/sketch -->
    <title>Design_Icon</title>
    <desc>Created with Sketch.</desc>
    <defs>
        <polygon id="path-1" points="0.000121212121 120 119.667273 120 119.667273 0.528727273 0.000121212121 0.528727273"></polygon>
    </defs>
    <g id="BlueOak_Desktop_HD" stroke="none" stroke-width="1" fill="none" fill-rule="evenodd">
        <g id="BlueOak_Desktop-HD" transform="translate(-344.000000, -556.000000)">
            <g id="_Overview" transform="translate(286.000000, 457.000000)">
                <g id="Design" transform="translate(0.000000, 99.000000)">
                    <g id="Design_Icon" transform="translate(58.000000, 0.000000)">
                        <g id="Icon" transform="translate(0.000000, 0.235255)">
                            <mask id="mask-2" fill="white">
                                <use xlink:href="#path-1"></use>
                            </mask>
                            <g id="Clip-4"></g>
                            <path d="M99.1546667,83.3020606 C98.1170909,83.6178182 97.188,84.0626667 96.3807273,84.5711515 C96.3498182,84.5699394 96.3189091,84.5693333 96.288,84.5681212 L43.9286061,32.2081212 L45.9946667,30.1420606 L99.1546667,83.3020606 Z M102.738909,89.5972121 L102.644364,94.606303 C100.409212,94.9244848 98.3946667,95.8372121 96.8352727,97.3972121 C95.1922424,99.0396364 94.2631515,101.186303 93.9952727,103.565091 L89.0413333,103.487515 C88.8225455,101.068727 90.338303,99.7232727 90.6540606,99.4747879 C91.4892121,98.9111515 91.9813333,98.036 92.077697,97.0323636 C92.1431515,96.3535758 91.9740606,95.696 91.6401212,95.1196364 C91.8837576,94.4335758 92.3207273,93.7499394 92.9055758,93.165697 C93.3589091,92.7117576 93.8728485,92.3499394 94.4001212,92.0941818 C94.9322424,92.4250909 95.5449697,92.6105455 96.178303,92.6105455 C96.2661818,92.6105455 96.3546667,92.6075152 96.4431515,92.6002424 C97.428,92.5226667 98.3292121,92.0184242 98.9098182,91.2196364 C98.9249697,91.1984242 100.23103,89.4632727 102.738909,89.5972121 L102.738909,89.5972121 Z M86.4698182,89.7693333 L36.4189091,39.7178182 L39.1528485,36.9838788 L89.1607273,86.9917576 C88.708,87.3378182 88.2704242,87.7099394 87.8601212,88.1202424 C87.3449697,88.6353939 86.8825455,89.1893333 86.4698182,89.7693333 L86.4698182,89.7693333 Z M82.738303,99.7141818 L29.5801212,46.5566061 L31.6431515,44.4935758 L84.0395152,96.8899394 C83.517697,97.7081212 83.0613333,98.6553939 82.738303,99.7141818 L82.738303,99.7141818 Z M51.9195152,86.4844848 L41.8916364,76.4572121 L37.1158788,81.2323636 L47.1437576,91.2602424 L38.9534545,99.4505455 L28.9261818,89.4226667 L24.1504242,94.1984242 L34.177697,104.226303 L27.9546667,110.449333 L9.5510303,92.0450909 L37.5346667,64.0614545 L55.938303,82.465697 L51.9195152,86.4844848 Z M91.7128485,10.0796364 L110.116485,28.4832727 L103.684364,34.916 L93.6570909,24.8881212 L88.8813333,29.6638788 L98.9086061,39.6917576 L90.718303,47.8814545 L80.6910303,37.8541818 L75.9152727,42.6293333 L85.9431515,52.6572121 L82.0019394,56.5984242 L63.597697,38.1941818 L91.7128485,10.0796364 Z M119.667394,28.4832727 L91.7128485,0.528727273 L58.8225455,33.4190303 L45.9946667,20.5911515 L20.0292121,46.5566061 L32.7589091,59.285697 L0.000121212121,92.0450909 L27.9546667,120.000242 L38.9534545,109.001455 L38.9534545,109.001455 L43.7292121,104.225697 L43.7292121,104.225697 L51.9195152,96.0353939 L51.9195152,96.036 L56.6952727,91.2602424 L56.6946667,91.2602424 L60.7140606,87.2408485 L83.6304242,110.157212 L109.098909,110.555394 L109.595273,84.1917576 L86.7770909,61.3735758 L119.667394,28.4832727 Z" id="Fill-3" fill="#43A5FA" mask="url(#mask-2)"></path>
                            <path d="M14.7510303,41.7016364 L40.7158788,15.7367879 L30.6486061,5.66951515 C29.0728485,4.09315152 26.4940606,4.09315152 24.918303,5.66951515 L4.68375758,25.9040606 C3.108,27.4798182 3.108,30.0586061 4.68375758,31.6343636 L14.7510303,41.7016364 Z" id="Fill-1" fill="#43A5FA" mask="url(#mask-2)"></path>
                        </g>
                    </g>
                </g>
            </g>
        </g>
    </g>
</svg>