<?xml version="1.0" encoding="UTF-8" standalone="no"?>
<svg width="20px" height="20px" viewBox="0 0 20 20" version="1.1" xmlns="http://www.w3.org/2000/svg" xmlns:xlink="http://www.w3.org/1999/xlink">
    <!-- Generator: Sketch 40.3 (33839) - http://www.bohemiancoding.com/sketch -->
    <title>Icon</title>
    <desc>Created with Sketch.</desc>
    <defs>
        <polygon id="path-1" points="2.02020202e-05 20 19.9445455 20 19.9445455 0.0881212121 2.02020202e-05 0.0881212121"></polygon>
    </defs>
    <g id="BlueOak_Desktop_HD" stroke="none" stroke-width="1" fill="none" fill-rule="evenodd">
        <g id="BlueOak_iPhone-7" transform="translate(-30.000000, -1493.000000)">
            <g id="Design_Elements" transform="translate(14.000000, 1489.000000)">
                <g id="Design_Icon" transform="translate(16.000000, 4.000000)">
                    <g id="Icon" transform="translate(0.000000, 0.039209)">
                        <mask id="mask-2" fill="white">
                            <use xlink:href="#path-1"></use>
                        </mask>
                        <g id="Clip-4"></g>
                        <path d="M16.5257778,13.8836768 C16.3528485,13.936303 16.198,14.0104444 16.0634545,14.0951919 C16.058303,14.0949899 16.0531515,14.0948889 16.048,14.0946869 L7.32143434,5.3680202 L7.66577778,5.02367677 L16.5257778,13.8836768 Z M17.1231515,14.9328687 L17.1073939,15.7677172 C16.7348687,15.8207475 16.3991111,15.9728687 16.1392121,16.2328687 C15.8653737,16.5066061 15.7105253,16.8643838 15.6658788,17.2608485 L14.8402222,17.2479192 C14.8037576,16.8447879 15.0563838,16.6205455 15.1090101,16.5791313 C15.248202,16.4851919 15.3302222,16.3393333 15.3462828,16.1720606 C15.3571919,16.0589293 15.3290101,15.9493333 15.2733535,15.8532727 C15.3139596,15.7389293 15.3867879,15.6249899 15.4842626,15.5276162 C15.5598182,15.4519596 15.6454747,15.3916566 15.7333535,15.3490303 C15.8220404,15.4041818 15.9241616,15.4350909 16.0297172,15.4350909 C16.0443636,15.4350909 16.0591111,15.4345859 16.0738586,15.4333737 C16.238,15.4204444 16.388202,15.336404 16.4849697,15.2032727 C16.4874949,15.1997374 16.7051717,14.9105455 17.1231515,14.9328687 L17.1231515,14.9328687 Z M14.4116364,14.9615556 L6.06981818,6.61963636 L6.52547475,6.1639798 L14.8601212,14.4986263 C14.7846667,14.556303 14.7117374,14.6183232 14.6433535,14.6867071 C14.5574949,14.7725657 14.4804242,14.8648889 14.4116364,14.9615556 L14.4116364,14.9615556 Z M13.7897172,16.6190303 L4.9300202,7.75943434 L5.27385859,7.41559596 L14.0065859,16.1483232 C13.9196162,16.2846869 13.8435556,16.4425657 13.7897172,16.6190303 L13.7897172,16.6190303 Z M8.65325253,14.4140808 L6.98193939,12.7428687 L6.1859798,13.5387273 L7.85729293,15.2100404 L6.49224242,16.5750909 L4.8210303,14.9037778 L4.02507071,15.6997374 L5.69628283,17.3710505 L4.65911111,18.4082222 L1.59183838,15.3408485 L6.25577778,10.6769091 L9.32305051,13.7442828 L8.65325253,14.4140808 Z M15.2854747,1.67993939 L18.3527475,4.74721212 L17.2807273,5.81933333 L15.6095152,4.1480202 L14.8135556,4.9439798 L16.4847677,6.61529293 L15.1197172,7.98024242 L13.4485051,6.3090303 L12.6525455,7.10488889 L14.3238586,8.77620202 L13.6669899,9.43307071 L10.5996162,6.36569697 L15.2854747,1.67993939 Z M19.9445657,4.74721212 L15.2854747,0.0881212121 L9.80375758,5.56983838 L7.66577778,3.43185859 L3.33820202,7.75943434 L5.45981818,9.88094949 L2.02020202e-05,15.3408485 L4.65911111,20.0000404 L6.49224242,18.1669091 L6.49224242,18.1669091 L7.28820202,17.3709495 L7.28820202,17.3709495 L8.65325253,16.005899 L8.65325253,16.006 L9.44921212,15.2100404 L9.44911111,15.2100404 L10.1190101,14.5401414 L13.938404,18.3595354 L18.1831515,18.425899 L18.2658788,14.0319596 L14.4628485,10.2289293 L19.9445657,4.74721212 Z" id="Fill-3" fill="#43A5FA" mask="url(#mask-2)"></path>
                        <path d="M2.45850505,6.95027273 L6.7859798,2.62279798 L5.10810101,0.944919192 C4.84547475,0.682191919 4.41567677,0.682191919 4.15305051,0.944919192 L0.780626263,4.31734343 C0.518,4.5799697 0.518,5.00976768 0.780626263,5.27239394 L2.45850505,6.95027273 Z" id="Fill-1" fill="#43A5FA" mask="url(#mask-2)"></path>
                    </g>
                </g>
            </g>
        </g>
    </g>
</svg>