<?xml version="1.0" encoding="utf-8"?>
<!-- Generator: Adobe Illustrator 19.2.0, SVG Export Plug-In . SVG Version: 6.00 Build 0)  -->
<svg version="1.1" id="Layer_1" xmlns="http://www.w3.org/2000/svg" xmlns:xlink="http://www.w3.org/1999/xlink" x="0px" y="0px"
	 viewBox="0 0 134.5 133" style="enable-background:new 0 0 134.5 133;" xml:space="preserve">
<style type="text/css">
	.st0{filter:url(#Adobe_OpacityMaskFilter);}
	.st1{fill:#FFFFFF;}
	.st2{mask:url(#mask-2);fill:#419BF9;}
	.st3{filter:url(#Adobe_OpacityMaskFilter_1_);}
	.st4{mask:url(#mask-4);fill:#419BF9;}
	.st5{fill:#43A5FA;}
</style>
<title>BE_Icon</title>
<desc>Created with Sketch.</desc>
<g id="BlueOak_Desktop_HD">
	<g id="BlueOak_Desktop-HD" transform="translate(-961.000000, -556.000000)">
		<g id="_Overview" transform="translate(286.000000, 457.000000)">
			<g id="BE" transform="translate(626.000000, 99.000000)">
				<g id="BE_Icon" transform="translate(49.000000, 0.000000)">
					<g>
						<g id="Group-3" transform="translate(0.000000, 21.330040)">
							<g id="Clip-2">
							</g>
							<defs>
								<filter id="Adobe_OpacityMaskFilter" filterUnits="userSpaceOnUse" x="0" y="0" width="89.8" height="89.6">
									<feColorMatrix  type="matrix" values="1 0 0 0 0  0 1 0 0 0  0 0 1 0 0  0 0 0 1 0"/>
								</filter>
							</defs>
							<mask maskUnits="userSpaceOnUse" x="0" y="0" width="89.8" height="89.6" id="mask-2">
								<g class="st0">
									<polygon id="path-1" class="st1" points="0,0 0,89.6 89.8,89.6 89.8,0 									"/>
								</g>
							</mask>
							<path id="Fill-1" class="st2" d="M44.9,63.9c-10.6,0-19.2-8.6-19.2-19.2c0-10.6,8.6-19.2,19.2-19.2s19.2,8.6,19.2,19.2
								C64.1,55.4,55.5,63.9,44.9,63.9L44.9,63.9z M89.8,52.4V37.1h-9c-0.9-4.5-2.7-8.6-5.1-12.3l6.3-6.3L71.3,7.7L64.9,14
								c-3.7-2.4-7.9-4.2-12.4-5.1V0H37.3v8.9c-4.5,0.9-8.7,2.7-12.4,5.1l-6.3-6.3L7.7,18.5l6.3,6.3c-2.4,3.7-4.2,7.9-5.1,12.3H0
								v15.3h9c0.9,4.5,2.7,8.6,5.1,12.3l-6.3,6.3l10.8,10.8l6.3-6.3c3.7,2.4,7.9,4.2,12.4,5.1v8.9h15.3v-8.9
								c4.5-0.9,8.7-2.7,12.4-5.1l6.3,6.3l10.8-10.8l-6.3-6.3c2.4-3.7,4.2-7.9,5.1-12.3H89.8z"/>
						</g>
						<g id="Group-6" transform="translate(78.912545, 0.042174)">
							<g id="Clip-5">
							</g>
							<defs>
								<filter id="Adobe_OpacityMaskFilter_1_" filterUnits="userSpaceOnUse" x="0" y="0" width="55.6" height="55.5">
									<feColorMatrix  type="matrix" values="1 0 0 0 0  0 1 0 0 0  0 0 1 0 0  0 0 0 1 0"/>
								</filter>
							</defs>
							<mask maskUnits="userSpaceOnUse" x="0" y="0" width="55.6" height="55.5" id="mask-4">
								<g class="st3">
									<polygon id="path-3" class="st1" points="55.6,55.4 55.6,0 0,0 0,55.4 									"/>
								</g>
							</mask>
							<path id="Fill-4" class="st4" d="M27.8,39.6c-6.6,0-11.9-5.3-11.9-11.9c0-6.6,5.3-11.9,11.9-11.9s11.9,5.3,11.9,11.9
								C39.7,34.2,34.4,39.6,27.8,39.6L27.8,39.6z M55.6,32.4V23h-5.5c-0.6-2.8-1.7-5.3-3.2-7.6l3.9-3.9l-6.7-6.7l-3.9,3.9
								c-2.3-1.5-4.9-2.6-7.7-3.2V0h-9.5v5.5c-2.8,0.6-5.4,1.7-7.7,3.2l-3.9-3.9l-6.7,6.7l3.9,3.9c-1.5,2.3-2.6,4.9-3.2,7.6H0v9.4
								h5.5c0.6,2.8,1.7,5.3,3.2,7.6L4.8,44l6.7,6.7l3.9-3.9c2.3,1.5,4.9,2.6,7.7,3.2v5.5h9.5v-5.5c2.8-0.6,5.4-1.7,7.7-3.2l3.9,3.9
								l6.7-6.7l-3.9-3.9c1.5-2.3,2.6-4.9,3.2-7.6H55.6z"/>
						</g>
						<path id="Fill-7" class="st5" d="M104.7,117.1c-6.6,0-11.9-5.3-11.9-11.9c0-6.6,5.3-11.9,11.9-11.9c6.6,0,11.9,5.3,11.9,11.9
							C116.6,111.8,111.3,117.1,104.7,117.1L104.7,117.1z M132.5,110v-9.4H127c-0.6-2.8-1.7-5.3-3.2-7.6l3.9-3.9l-6.7-6.7l-3.9,3.9
							c-2.3-1.5-4.9-2.6-7.7-3.2v-5.5H100v5.5c-2.8,0.6-5.4,1.7-7.7,3.2l-3.9-3.9L81.7,89l3.9,3.9c-1.5,2.3-2.6,4.9-3.2,7.6h-5.5
							v9.4h5.5c0.6,2.8,1.7,5.3,3.2,7.6l-3.9,3.9l6.7,6.7l3.9-3.9c2.3,1.5,4.9,2.6,7.7,3.2v5.5h9.5v-5.5c2.8-0.6,5.4-1.7,7.7-3.2
							l3.9,3.9l6.7-6.7l-3.9-3.9c1.5-2.3,2.6-4.9,3.2-7.6H132.5z"/>
					</g>
				</g>
			</g>
		</g>
	</g>
</g>
</svg>
