<?xml version="1.0" encoding="UTF-8" standalone="no"?>
<svg width="140px" height="140px" viewBox="0 0 140 140" version="1.1" xmlns="http://www.w3.org/2000/svg" xmlns:xlink="http://www.w3.org/1999/xlink">
    <!-- Generator: Sketch 40.3 (33839) - http://www.bohemiancoding.com/sketch -->
    <title>Icon</title>
    <desc>Created with Sketch.</desc>
    <defs>
        <polygon id="path-1" points="0.000141414141 140 139.611818 140 139.611818 0.616848485 0.000141414141 0.616848485"></polygon>
    </defs>
    <g id="Symbols" stroke="none" stroke-width="1" fill="none" fill-rule="evenodd">
        <g id="Design_Icon" transform="translate(0.000000, -1.000000)">
            <g id="Icon" transform="translate(0.000000, 0.274465)">
                <mask id="mask-2" fill="white">
                    <use xlink:href="#path-1"></use>
                </mask>
                <g id="Clip-4"></g>
                <path d="M115.680444,97.1857374 C114.469939,97.5541212 113.386,98.0731111 112.444182,98.6663434 C112.408121,98.6649293 112.372061,98.6642222 112.336,98.6628081 L51.2500404,37.5761414 L53.6604444,35.1657374 L115.680444,97.1857374 Z M119.862061,104.530081 L119.751758,110.37402 C117.144081,110.745232 114.793778,111.810081 112.974485,113.630081 C111.057616,115.546242 109.973677,118.050687 109.661152,120.825939 L103.881556,120.735434 C103.626303,117.913515 105.394687,116.343818 105.763071,116.053919 C106.737414,115.396343 107.311556,114.375333 107.42398,113.204424 C107.500343,112.412505 107.303071,111.645333 106.913475,110.972909 C107.197717,110.172505 107.707515,109.374929 108.389838,108.693313 C108.918727,108.163717 109.518323,107.741596 110.133475,107.443212 C110.754283,107.829273 111.469131,108.045636 112.20802,108.045636 C112.310545,108.045636 112.413778,108.042101 112.51701,108.033616 C113.666,107.943111 114.717414,107.354828 115.394788,106.422909 C115.412465,106.398162 116.936202,104.373818 119.862061,104.530081 L119.862061,104.530081 Z M100.881455,104.730889 L42.4887273,46.3374545 L45.6783232,43.1478586 L104.020848,101.490384 C103.492667,101.894121 102.982162,102.328263 102.503475,102.806949 C101.902465,103.40796 101.36297,104.054222 100.881455,104.730889 L100.881455,104.730889 Z M96.5280202,116.333212 L34.5101414,54.3160404 L36.9170101,51.9091717 L98.046101,113.038263 C97.4373131,113.992808 96.9048889,115.09796 96.5280202,116.333212 L96.5280202,116.333212 Z M60.5727677,100.898566 L48.8735758,89.2000808 L43.3018586,94.7710909 L55.0010505,106.470283 L45.445697,116.025636 L33.7472121,104.326444 L28.1754949,109.898162 L39.8739798,121.597354 L32.6137778,128.857556 L11.1428687,107.385939 L43.7904444,74.7383636 L65.2613535,96.2099798 L60.5727677,100.898566 Z M106.998323,11.7595758 L128.469232,33.2304848 L120.965091,40.7353333 L109.266606,29.0361414 L103.694889,34.6078586 L115.393374,46.3070505 L105.83802,55.861697 L94.1395354,44.1632121 L88.5678182,49.7342222 L100.26701,61.4334141 L95.6689293,66.0314949 L74.1973131,44.5598788 L106.998323,11.7595758 Z M139.61196,33.2304848 L106.998323,0.616848485 L68.626303,38.9888687 L53.6604444,24.0230101 L23.3674141,54.3160404 L38.2187273,69.1666465 L0.000141414141,107.385939 L32.6137778,140.000283 L45.445697,127.168364 L45.445697,127.168364 L51.0174141,121.596646 L51.0174141,121.596646 L60.5727677,112.041293 L60.5727677,112.042 L66.1444848,106.470283 L66.1437778,106.470283 L70.8330707,101.78099 L97.5688283,128.516747 L127.282061,128.981293 L127.861152,98.2237172 L101.239939,71.6025051 L139.61196,33.2304848 Z" id="Fill-3" fill="#43A5FA" mask="url(#mask-2)"></path>
                <path d="M17.2095354,48.6519091 L47.5018586,18.3595859 L35.7567071,6.61443434 C33.9183232,4.77534343 30.9097374,4.77534343 29.0713535,6.61443434 L5.46438384,30.221404 C3.626,32.0597879 3.626,35.0683737 5.46438384,36.9067576 L17.2095354,48.6519091 Z" id="Fill-1" fill="#43A5FA" mask="url(#mask-2)"></path>
            </g>
        </g>
    </g>
</svg>