<?xml version="1.0" encoding="utf-8"?>
<!-- Generator: Adobe Illustrator 19.2.0, SVG Export Plug-In . SVG Version: 6.00 Build 0)  -->
<svg version="1.1" id="Layer_1" xmlns="http://www.w3.org/2000/svg" xmlns:xlink="http://www.w3.org/1999/xlink" x="0px" y="0px"
	 viewBox="0 0 36.2 36.2" style="enable-background:new 0 0 36.2 36.2;" xml:space="preserve">
<style type="text/css">
	.st0{fill:#419BF9;}
	.st1{filter:url(#Adobe_OpacityMaskFilter);}
	.st2{fill:#FFFFFF;}
	.st3{mask:url(#mask-2);fill:#419BF9;}
</style>
<title>DL_Icon</title>
<desc>Created with Sketch.</desc>
<g id="BlueOak_Desktop_HD">
	<g id="BlueOak_Desktop-HD" transform="translate(-283.000000, -970.000000)">
		<g id="Design_Elements" transform="translate(283.000000, 930.000000)">
			<g id="DL_Icon" transform="translate(0.000000, 40.000000)">
				<g>
					<path id="Fill-1" class="st0" d="M31.9,16.5c-0.8,0-1.5,0.7-1.5,1.5v13.2c0,1.2-0.9,2.1-2.1,2.1H5.1c-1.2,0-2.1-0.9-2.1-2.1V8
						c0-1.2,0.9-2.1,2.1-2.1h13.2c0.8,0,1.5-0.7,1.5-1.5c0-0.8-0.7-1.5-1.5-1.5H5.1C2.3,2.9,0,5.2,0,8v23.2c0,2.8,2.3,5.1,5.1,5.1
						h23.2c2.8,0,5.1-2.3,5.1-5.1V18C33.4,17.1,32.7,16.5,31.9,16.5"/>
					<g id="Group-5" transform="translate(8.000000, 0.239600)">
						<g id="Clip-4">
						</g>
						<defs>
							<filter id="Adobe_OpacityMaskFilter" filterUnits="userSpaceOnUse" x="0.8" y="-0.2" width="27.5" height="27.5">
								<feColorMatrix  type="matrix" values="1 0 0 0 0  0 1 0 0 0  0 0 1 0 0  0 0 0 1 0"/>
							</filter>
						</defs>
						<mask maskUnits="userSpaceOnUse" x="0.8" y="-0.2" width="27.5" height="27.5" id="mask-2">
							<g class="st1">
								<polygon id="path-1" class="st2" points="28.2,27.2 28.2,-0.2 0.8,-0.2 0.8,27.2 								"/>
							</g>
						</mask>
						<path id="Fill-3" class="st3" d="M23.8-0.2h-4.7h-1.9c-2.4,0-3,1.4-1.3,3.1l3.3,3.3L1.3,24c-0.7,0.7-0.7,1.9,0,2.6
							c0.4,0.4,0.8,0.5,1.3,0.5s1-0.2,1.3-0.5L21.8,8.8l3.3,3.3c1.7,1.7,3.1,1.1,3.1-1.3V8.9V4.2v-4.5H23.8z"/>
					</g>
				</g>
			</g>
		</g>
	</g>
</g>
</svg>
