<?xml version="1.0" encoding="UTF-8" standalone="no"?>
<svg width="147px" height="128px" viewBox="0 0 147 128" version="1.1" xmlns="http://www.w3.org/2000/svg" xmlns:xlink="http://www.w3.org/1999/xlink">
    <!-- Generator: Sketch 40.3 (33839) - http://www.bohemiancoding.com/sketch -->
    <title>Fe_Icon</title>
    <desc>Created with Sketch.</desc>
    <defs>
        <polygon id="path-1" points="0.256817647 24.8227273 85.6373 24.8227273 85.6373 0.141662727 0.256817647 0.141662727 0.256817647 24.8227273"></polygon>
        <polygon id="path-3" points="0 126.857991 147 126.857991 147 0 0 0"></polygon>
    </defs>
    <g id="Symbols" stroke="none" stroke-width="1" fill="none" fill-rule="evenodd">
        <g id="Fe_Icon">
            <g>
                <g id="Group-3" transform="translate(29.976471, 102.035264)">
                    <mask id="mask-2" fill="white">
                        <use xlink:href="#path-1"></use>
                    </mask>
                    <g id="Clip-2"></g>
                    <path d="M20.2349824,0.680835455 C20.2349824,8.19404 12.8198412,15.1403627 0.256817647,20.7878218 C9.68153529,23.2267991 25.2825588,24.8229582 42.9467706,24.8229582 C60.6115588,24.8229582 76.2125824,23.2267991 85.6373,20.7878218 C73.0742765,15.1403627 65.6591353,8.19404 65.6591353,0.680835455 C65.6591353,0.500726364 65.6741235,0.321194545 65.6821941,0.141662727 L20.2113471,0.141662727 C20.2199941,0.321194545 20.2349824,0.500726364 20.2349824,0.680835455" id="Fill-1" fill="#419BF9" mask="url(#mask-2)"></path>
                </g>
                <mask id="mask-4" fill="white">
                    <use xlink:href="#path-3"></use>
                </mask>
                <g id="Clip-5"></g>
                <path d="M7.16091765,80.9734682 L139.839082,80.9734682 L139.839082,8.05468636 L7.16091765,8.05468636 L7.16091765,80.9734682 Z M139.851765,0 L7.14823529,0 C3.20632941,0 0,3.21079091 0,7.15818182 L0,90.9781818 C0,94.9249955 3.20632941,98.1363636 7.14823529,98.1363636 L50.4261882,98.1363636 L96.5738118,98.1363636 L139.851765,98.1363636 C143.793094,98.1363636 147,94.9249955 147,90.9781818 L147,7.15818182 C147,3.21079091 143.793094,0 139.851765,0 L139.851765,0 Z" id="Fill-4" fill="#419BF9" mask="url(#mask-4)"></path>
                <polygon id="Fill-6" fill="#419BF9" mask="url(#mask-4)" points="33.4094106 40.7399259 61.3693871 28.1848214 61.3693871 34.0857032 39.1141635 43.6280214 61.3693871 53.0444941 61.3693871 58.9459532 33.4094106 46.4526168"></polygon>
                <polygon id="Fill-7" fill="#419BF9" mask="url(#mask-4)" points="78.0447788 21.4672141 83.8123671 21.4672141 68.9549906 65.851405 63.1874024 65.851405"></polygon>
                <polygon id="Fill-8" fill="#419BF9" mask="url(#mask-4)" points="85.6306706 53.044725 107.885318 43.6282523 85.6306706 34.0853568 85.6306706 28.1850523 113.590647 40.7401568 113.590647 46.4528477 85.6306706 58.9461841"></polygon>
            </g>
        </g>
    </g>
</svg>